# xmcd
#
# Track frame offsets: 
#        150
#        19457
#        32878
#        51819
#        66422
#        88503
#        107517
#        125538
#        141036
#        160281
#        177601
#        194518
#        225268
#
# Disc length: 3180 seconds
#
# Revision: 0
# Processed by: cddbd v1.5.2PL0 Copyright (c) Steve Scherf et al.
# Submitted via: ExactAudioCopyFreeDBPlugin 1.0
#
DISCID=b50c6a0d
DTITLE=Peter Karp - Blue Flame
DYEAR=2018
DGENRE=Blues
TTITLE0=Rolling On A Log
TTITLE1=Train O' Mine
TTITLE2=Your Prettiness
TTITLE3=Valentine's Day
TTITLE4=Treat Me Right
TTITLE5=The Turning Point
TTITLE6=Loose Ends
TTITLE7=The Arson's Match
TTITLE8=From Where I Stand
TTITLE9=You Know
TTITLE10=The Nietzsche Lounge
TTITLE11=Round And Around
TTITLE12=Young Girl
EXTD=
EXTT0=
EXTT1=
EXTT2=
EXTT3=
EXTT4=
EXTT5=
EXTT6=
EXTT7=
EXTT8=
EXTT9=
EXTT10=
EXTT11=
EXTT12=
PLAYORDER=
